<svg width="24" height="24" viewBox="0 0 24 24" fill="none" xmlns="http://www.w3.org/2000/svg">
<path d="M3.51562 21.1406H20.4844C22.4229 21.1406 24 19.5635 24 17.625V6.375C24 4.43646 22.4229 2.85938 20.4844 2.85938H3.51562C1.57709 2.85938 0 4.43646 0 6.375V17.625C0 19.5635 1.57709 21.1406 3.51562 21.1406ZM1.40625 6.375C1.40625 5.21191 2.35254 4.26562 3.51562 4.26562H20.4844C21.6475 4.26562 22.5938 5.21191 22.5938 6.375V17.625C22.5938 18.7881 21.6475 19.7344 20.4844 19.7344H3.51562C2.35254 19.7344 1.40625 18.7881 1.40625 17.625V6.375Z" fill="white"/>
<path d="M8.48438 7.28955V16.8473L16.9453 11.9901L8.48438 7.28955ZM9.89062 9.67944L14.0859 12.0102L9.89062 14.4186V9.67944Z" fill="white"/>
</svg>
