<svg width="100" height="100" viewBox="0 0 100 100" fill="none" xmlns="http://www.w3.org/2000/svg">
<path d="M15.8914 73.7006C18.061 73.7006 19.8262 71.9354 19.8262 69.7658C19.8262 67.5963 18.0612 65.8311 15.8914 65.8311C13.7217 65.8311 11.9567 67.5961 11.9567 69.7658C11.9567 71.9356 13.7217 73.7006 15.8914 73.7006ZM15.8914 68.7608C16.4455 68.7608 16.8965 69.2115 16.8965 69.7658C16.8965 70.3201 16.4457 70.7709 15.8914 70.7709C15.3371 70.7709 14.8864 70.3199 14.8864 69.7658C14.8864 69.2117 15.3371 68.7608 15.8914 68.7608Z" fill="#B66DF0"/>
<path d="M15.8914 85.3822C18.9475 85.3822 21.434 82.8959 21.434 79.8397C21.434 76.7834 18.9477 74.2971 15.8914 74.2971C12.8352 74.2971 10.3488 76.7834 10.3488 79.8397C10.3488 82.8959 12.8352 85.3822 15.8914 85.3822ZM15.8914 77.2268C17.3321 77.2268 18.5043 78.3988 18.5043 79.8397C18.5043 81.2805 17.3322 82.4526 15.8914 82.4526C14.4506 82.4526 13.2785 81.2805 13.2785 79.8397C13.2785 78.3988 14.4506 77.2268 15.8914 77.2268Z" fill="#B66DF0"/>
<path d="M84.1086 73.7006C86.2781 73.7006 88.0434 71.9354 88.0434 69.7658C88.0434 67.5963 86.2781 65.8311 84.1086 65.8311C81.9391 65.8311 80.1738 67.5961 80.1738 69.7658C80.1738 71.9356 81.9391 73.7006 84.1086 73.7006ZM84.1086 68.7608C84.6627 68.7608 85.1137 69.2115 85.1137 69.7658C85.1137 70.3201 84.6627 70.7709 84.1086 70.7709C83.5545 70.7709 83.1035 70.3199 83.1035 69.7658C83.1035 69.2117 83.5545 68.7608 84.1086 68.7608Z" fill="#B66DF0"/>
<path d="M84.1086 74.2971C81.0525 74.2971 78.566 76.7834 78.566 79.8397C78.566 82.8959 81.0523 85.3822 84.1086 85.3822C87.1648 85.3822 89.6512 82.8959 89.6512 79.8397C89.6512 76.7834 87.1648 74.2971 84.1086 74.2971ZM84.1086 82.4526C82.668 82.4526 81.4957 81.2805 81.4957 79.8397C81.4957 78.3988 82.6678 77.2268 84.1086 77.2268C85.5494 77.2268 86.7215 78.3988 86.7215 79.8397C86.7215 81.2805 85.5494 82.4526 84.1086 82.4526Z" fill="#B66DF0"/>
<path d="M96.4477 86.3397H95.3926V64.9569C95.3926 63.3713 94.1027 62.0815 92.5172 62.0815H89.7398V29.4H95.1332C97.2746 29.4 99.0166 27.658 99.0166 25.5166V22.8637C99.0166 21.2117 97.9682 19.7375 96.4076 19.1953L75.5619 11.9528C74.798 11.6873 73.9629 12.0914 73.6975 12.8557C73.432 13.6199 73.8361 14.4547 74.6004 14.7201L95.4461 21.9627C95.8293 22.0959 96.0869 22.458 96.0869 22.8637V25.5166C96.0869 26.0424 95.6592 26.4703 95.1332 26.4703H4.86699C4.34102 26.4703 3.91328 26.0426 3.91328 25.5166V22.8637C3.91328 22.458 4.1707 22.0959 4.55391 21.9629L49.6855 6.28185C49.8873 6.21193 50.1098 6.21193 50.3115 6.28185L69.0498 12.7922C69.8139 13.0578 70.6488 12.6535 70.9143 11.8893C71.1797 11.125 70.7756 10.2903 70.0113 10.0248L51.273 3.51447C50.4512 3.22892 49.5459 3.22892 48.724 3.51447L3.59238 19.1955C2.03184 19.7377 0.983594 21.2119 0.983594 22.8637V25.5166C0.983594 27.6578 2.72559 29.4 4.86699 29.4H10.2604V62.0815H7.48301C5.89746 62.0815 4.60762 63.3713 4.60762 64.9569V72.8162C4.60762 73.6252 5.26348 74.2811 6.07246 74.2811C6.88144 74.2811 7.5373 73.6252 7.5373 72.8162V65.0112H24.2455V86.3395H7.5373V78.6877C7.5373 77.8787 6.88144 77.2229 6.07246 77.2229C5.26348 77.2229 4.60762 77.8787 4.60762 78.6877V86.3395H3.55254C1.59355 86.3397 0 87.9332 0 89.8922V93.1475C0 95.1063 1.59355 96.6998 3.55234 96.6998H96.4475C98.4062 96.6998 99.9998 95.1063 99.9998 93.1475V89.8922C100 87.9332 98.4064 86.3397 96.4477 86.3397ZM86.81 29.4V35.5918L80.1525 29.4H86.81ZM75.7545 29.4H75.8508L84.549 37.4897H75.7547V29.4H75.7545ZM86.81 40.4195V48.5988L78.0156 40.4195H86.81V40.4195ZM75.7545 42.3174L84.5488 50.4967H75.7545V42.3174ZM86.81 53.4264V61.6055L78.0156 53.4264H86.81ZM75.7545 55.3244L83.0197 62.0815H75.7545V55.3244ZM75.7545 65.0112H92.4627V86.3395H75.7545V65.0112ZM27.1752 29.4H72.825V86.3395H27.1752V29.4ZM24.2455 29.4V37.4897H15.451L24.1492 29.4H24.2455V29.4ZM13.19 29.4H19.8475L13.19 35.5918V29.4ZM13.19 40.4195H21.9844L13.19 48.5988V40.4195ZM24.2455 42.3174V50.4967H15.451L24.2455 42.3174ZM13.19 53.4264H21.9844L13.19 61.6055V53.4264ZM16.9801 62.0815L24.2453 55.3244V62.0815H16.9801ZM97.0703 93.1475C97.0703 93.4908 96.791 93.7701 96.4477 93.7701H3.55234C3.20898 93.7701 2.92969 93.4908 2.92969 93.1475V89.8922C2.92969 89.5488 3.20898 89.2694 3.55234 89.2694H6.06484C6.06738 89.2694 6.06992 89.2694 6.07246 89.2694C6.075 89.2694 6.07754 89.2694 6.08008 89.2694H96.4477C96.791 89.2694 97.0703 89.5488 97.0703 89.8922V93.1475Z" fill="#B66DF0"/>
</svg>
