<svg xmlns="http://www.w3.org/2000/svg" width="100" height="100" fill="none" viewBox="0 0 100 100">
    <g clip-path="url(#clip0)">
        <path fill="#B66DF0" d="M16.7137 42.1852H27.6473C28.4565 42.1852 29.1122 41.5295 29.1122 40.7204C29.1122 39.9112 28.4565 39.2555 27.6473 39.2555H16.7137C15.9046 39.2555 15.2489 39.9112 15.2489 40.7204C15.2489 41.5295 15.9046 42.1852 16.7137 42.1852Z"/>
        <path fill="#B66DF0" d="M16.7137 48.554H27.6473C28.4565 48.554 29.1122 47.8983 29.1122 47.0891C29.1122 46.28 28.4565 45.6243 27.6473 45.6243H16.7137C15.9046 45.6243 15.2489 46.28 15.2489 47.0891C15.2489 47.8983 15.9046 48.554 16.7137 48.554Z"/>
        <path fill="#B66DF0" d="M52.052 15.5456C49.3344 15.5456 47.1235 17.7567 47.1235 20.4745C47.1235 23.1921 49.3344 25.403 52.052 25.403C54.7698 25.403 56.9807 23.1921 56.9807 20.4745C56.9809 17.7567 54.7698 15.5456 52.052 15.5456ZM52.052 22.4733C50.9496 22.4733 50.0532 21.5766 50.0532 20.4745C50.0532 19.372 50.9498 18.4753 52.052 18.4753C53.1541 18.4753 54.051 19.3722 54.051 20.4745C54.0512 21.5768 53.1543 22.4733 52.052 22.4733Z"/>
        <path fill="#B66DF0" d="M25.6343 11.1137C22.5566 11.1137 20.0527 13.6176 20.0527 16.6953C20.0527 19.773 22.5566 22.2767 25.6343 22.2767C28.712 22.2767 31.2158 19.773 31.2158 16.6953C31.2158 13.6176 28.7119 11.1137 25.6343 11.1137ZM25.6343 19.3473C24.172 19.3473 22.9824 18.1576 22.9824 16.6955C22.9824 15.2332 24.172 14.0435 25.6343 14.0435C27.0964 14.0435 28.2861 15.2332 28.2861 16.6955C28.2861 18.1576 27.0964 19.3473 25.6343 19.3473Z"/>
        <path fill="#B66DF0" d="M90.6829 30.5553C89.4114 29.8613 87.8645 29.9166 86.6457 30.7002L75.9263 37.5938V37.0598C75.9263 34.8815 74.1543 33.1092 71.9757 33.1092H69.9951V32.1447C69.9951 29.3193 67.6964 27.0209 64.8714 27.0209H63.1831C64.3171 25.0999 64.9683 22.8617 64.9683 20.4741C64.9683 13.352 59.1739 7.55766 52.0518 7.55766C47.8918 7.55766 44.1849 9.53463 41.8211 12.5981C39.9902 5.36683 33.4273 0 25.6344 0C16.4285 0 8.93904 7.4895 8.93904 16.6952C8.93904 20.5902 10.2797 24.1777 12.5238 27.0209H12.3795C9.55408 27.0209 7.25563 29.3195 7.25563 32.1447V34.6322C7.25563 35.4414 7.9113 36.0971 8.72048 36.0971C9.52966 36.0971 10.1853 35.4414 10.1853 34.6322V32.1447C10.1853 30.9349 11.1697 29.9506 12.3795 29.9506H15.4947C18.3076 32.1074 21.8241 33.3906 25.6344 33.3906C29.4448 33.3906 32.9612 32.1074 35.7744 29.9506H43.2844C45.5891 32.0846 48.6709 33.3906 52.0522 33.3906C55.4335 33.3906 58.5153 32.0846 60.8202 29.9506H64.8718C66.0816 29.9506 67.0657 30.9349 67.0657 32.1447V49.9319C67.0657 50.7411 67.7214 51.3968 68.5306 51.3968C69.3398 51.3968 69.9954 50.7411 69.9954 49.9319V36.0387H71.9761C72.539 36.0387 72.997 36.4967 72.997 37.0596V59.5043C72.997 60.0671 72.539 60.5252 71.9761 60.5252H69.9954V55.7921C69.9954 54.9829 69.3398 54.3273 68.5306 54.3273C67.7214 54.3273 67.0657 54.9829 67.0657 55.7921V64.4193C67.0657 65.6291 66.0816 66.6135 64.8718 66.6135H12.3793C11.1695 66.6135 10.1851 65.6291 10.1851 64.4193V40.4827C10.1851 39.6735 9.52947 39.0178 8.72028 39.0178C7.9111 39.0178 7.25543 39.6735 7.25543 40.4827V64.4193C7.25543 67.2447 9.55408 69.5432 12.3793 69.5432H18.9616V70.2569C18.9616 73.27 21.4129 75.7213 24.426 75.7213H26.5307L18.534 94.4341C18.1908 95.2371 18.1809 96.1256 18.5059 96.9361C18.8311 97.7463 19.4524 98.3814 20.2551 98.7244L22.6256 99.7375C23.0432 99.916 23.4776 100.001 23.9055 100C25.1755 100 26.3858 99.2558 26.9155 98.0164L36.4429 75.7217H40.1336L49.6608 98.0166C50.1906 99.2562 51.401 100 52.6709 100C53.0987 100 53.5332 99.916 53.9508 99.7375L56.3213 98.7244C57.9784 98.0162 58.7507 96.0918 58.0426 94.4343L50.0459 75.7213H52.6407C55.6538 75.7213 58.1051 73.27 58.1051 70.2569V69.5432H64.872C67.6972 69.5432 69.9956 67.2445 69.9956 64.4193V63.4549H71.9763C74.1547 63.4549 75.9269 61.6828 75.9269 59.5043V58.9703L86.6463 65.8639C87.2969 66.2822 88.0411 66.493 88.787 66.493C89.4381 66.493 90.0909 66.3324 90.6835 66.0088C91.9551 65.3144 92.745 63.9834 92.745 62.5347V34.0293C92.7444 32.5809 91.9546 31.2496 90.6829 30.5553ZM40.0175 25.1656C40.2699 25.8107 40.5726 26.4308 40.9211 27.0209H38.7453C39.2091 26.4332 39.6345 25.8134 40.0175 25.1656ZM11.8687 16.6952C11.8687 9.10493 18.044 2.9297 25.6344 2.9297C33.2249 2.9297 39.4002 9.10493 39.4002 16.6952C39.4002 24.2857 33.2249 30.4609 25.6344 30.4609C18.044 30.4611 11.8687 24.2859 11.8687 16.6952ZM52.052 30.4611C46.5455 30.4611 42.0654 25.981 42.0654 20.4743C42.0654 14.9677 46.5455 10.4876 52.052 10.4876C57.5587 10.4876 62.0388 14.9677 62.0388 20.4743C62.0388 25.981 57.5589 30.4611 52.052 30.4611ZM24.2215 96.8648C24.1481 97.0365 23.9485 97.1164 23.7768 97.0431L21.4063 96.03C21.2997 95.9845 21.2489 95.9039 21.225 95.8447C21.2012 95.7851 21.1823 95.6922 21.228 95.5853L29.7167 75.7211H33.2571L24.2215 96.8648ZM55.3485 95.5853C55.4219 95.7574 55.3418 95.9568 55.17 96.0302L52.7995 97.0433C52.6274 97.1172 52.4282 97.0365 52.3547 96.8648L43.3195 75.7213H46.86L55.3485 95.5853ZM55.1752 70.2569C55.1752 71.6545 54.0383 72.7916 52.6405 72.7916H24.426C23.0284 72.7916 21.8913 71.6547 21.8913 70.2569V69.5432H55.175V70.2569H55.1752ZM89.8147 62.5347C89.8147 63.0853 89.4401 63.3494 89.2792 63.4371C89.1182 63.525 88.6936 63.6978 88.2305 63.3996L75.9265 55.487V41.0774L88.2305 33.1648C88.6936 32.8672 89.1182 33.0391 89.2792 33.1273C89.4401 33.215 89.8147 33.4791 89.8147 34.0297V62.5347Z"/>
    </g>
    <defs>
        <clipPath id="clip0">
            <rect width="100" height="100" fill="white"/>
        </clipPath>
    </defs>
</svg>
