<svg width="100" height="100" viewBox="0 0 100 100" fill="none" xmlns="http://www.w3.org/2000/svg">
<path d="M11.1646 18.1494C15.3127 18.1494 18.9395 15.8756 20.8643 12.5088C22.7891 15.8754 26.416 18.1494 30.5641 18.1494C34.7121 18.1494 38.3391 15.8756 40.2639 12.5088C42.1887 15.8754 45.8156 18.1494 49.9637 18.1494C54.1117 18.1494 57.7385 15.8756 59.6633 12.5088C61.5881 15.8754 65.215 18.1494 69.3631 18.1494C73.5111 18.1494 77.1381 15.8756 79.0629 12.5088C80.9877 15.8754 84.6145 18.1494 88.7625 18.1494C94.9187 18.1494 99.9272 13.141 99.9272 6.98478V3.43322C99.9272 1.55021 98.3951 0.0183716 96.5123 0.0183716H3.41484C1.53203 0.0181763 0 1.55021 0 3.43322V6.98497C0 13.141 5.00859 18.1494 11.1646 18.1494ZM80.5279 2.94786H96.5125C96.7801 2.94786 96.9977 3.16544 96.9977 3.43302V6.98478C96.9977 11.5256 93.3035 15.2197 88.7627 15.2197C84.2221 15.2197 80.5279 11.5256 80.5279 6.98478V2.94786ZM61.1283 2.94786H77.5982V6.98478C77.5982 11.5256 73.9041 15.2197 69.3633 15.2197C64.8225 15.2197 61.1283 11.5256 61.1283 6.98478V2.94786ZM41.7287 2.94786H58.1984V6.98478C58.1984 11.5256 54.5043 15.2197 49.9637 15.2197H49.9635C45.4229 15.2197 41.7287 11.5256 41.7287 6.98478V2.94786V2.94786ZM22.3291 2.94786H38.799V6.98478C38.799 11.5256 35.1049 15.2197 30.5641 15.2197C26.0232 15.2197 22.3291 11.5256 22.3291 6.98478V2.94786ZM2.92969 3.43322C2.92969 3.16564 3.14727 2.94806 3.41484 2.94806H19.3994V6.98497C19.3994 11.5258 15.7053 15.2199 11.1646 15.2199C6.62383 15.2197 2.92969 11.5256 2.92969 6.98497V3.43322Z" fill="#B66DF0"/>
<path d="M98.5352 15.2197C97.726 15.2197 97.0703 15.8756 97.0703 16.6846V60.8254H91.9816C83.9092 56.8688 77.3186 50.4699 72.3897 41.8014C68.7563 35.4119 66.0924 27.9639 64.4715 19.6645C64.3164 18.8705 63.5477 18.3531 62.7529 18.5076C61.959 18.6627 61.4408 19.432 61.5959 20.226C63.2777 28.8375 66.0523 36.5838 69.8428 43.2496C74.2232 50.9529 79.8596 56.9748 86.6398 61.2068C84.8549 61.9543 83.5977 63.7191 83.5977 65.7721C83.5977 68.1096 85.2275 70.0734 87.4103 70.5873C79.4574 79.4352 77.8785 92.6777 77.5695 97.0522H22.4305C22.1215 92.6777 20.5426 79.4354 12.5896 70.5873C14.7727 70.0734 16.4023 68.1096 16.4023 65.7721C16.4023 63.7207 15.1471 61.9572 13.3646 61.2088C20.1633 56.9647 25.8115 50.9207 30.1961 43.1859C33.9826 36.5061 36.751 28.7467 38.424 20.1229C38.5781 19.3287 38.0594 18.56 37.265 18.4057C36.4705 18.251 35.7021 18.7705 35.548 19.5647C33.9354 27.8766 31.2771 35.3377 27.6473 41.741C22.716 50.44 16.1162 56.8592 8.02695 60.8256H2.92969V16.5588C2.92969 15.7498 2.27402 15.0939 1.46484 15.0939C0.655664 15.0939 0 15.7498 0 16.5588V96.5668C0 98.4498 1.53203 99.9816 3.41484 99.9816H96.585C98.468 99.9816 99.9998 98.4498 99.9998 96.5668V16.6846C100 15.8756 99.3443 15.2197 98.5352 15.2197ZM2.92969 63.7553H8.33359C8.34414 63.7555 8.35449 63.7557 8.36504 63.7557C8.37422 63.7557 8.38359 63.7555 8.39277 63.7553H11.4559C12.568 63.7553 13.4727 64.66 13.4727 65.7721C13.4727 66.8842 12.568 67.7889 11.4559 67.7889H2.92969V63.7553ZM3.41484 97.0522C3.14727 97.0522 2.92969 96.8346 2.92969 96.567V70.7186H8.58008C13.9258 75.4932 16.6137 82.524 17.932 87.6408C18.9643 91.6465 19.3502 95.1535 19.4928 97.0522H3.41484ZM97.0703 96.5668C97.0703 96.8344 96.8527 97.052 96.5852 97.052H80.5072C80.6498 95.1533 81.0357 91.6463 82.068 87.6406C83.3863 82.5238 86.0742 75.493 91.4199 70.7184H97.0703V96.5668ZM97.0703 67.7889H88.5441C87.432 67.7889 86.5273 66.8842 86.5273 65.7721C86.5273 64.66 87.432 63.7553 88.5441 63.7553H91.616C91.6252 63.7555 91.6346 63.7557 91.6438 63.7557C91.6543 63.7557 91.6648 63.7555 91.6752 63.7553H97.0703V67.7889Z" fill="#B66DF0"/>
<path d="M24.0375 88.141C24.0375 88.95 24.6932 89.6059 25.5024 89.6059H74.5748C75.384 89.6059 76.0397 88.95 76.0397 88.141C76.0397 87.3321 75.384 86.6762 74.5748 86.6762H25.5024C24.6934 86.6762 24.0375 87.3321 24.0375 88.141Z" fill="#B66DF0"/>
</svg>
