<svg width="247" height="70" viewBox="0 0 247 70" fill="none" xmlns="http://www.w3.org/2000/svg">
<g clip-path="url(#clip0)">
<path d="M22.2401 43.0491C22.4286 42.8605 22.718 42.975 22.9066 43.1635C23.1152 43.3723 23.2028 43.6617 23.0278 43.8367L22.0448 44.8197L25.9026 48.6774C26.0844 48.8592 25.9566 49.1756 25.741 49.3911C25.5188 49.6132 25.209 49.7344 25.0273 49.5527L21.1696 45.695L20.1799 46.6847C20.005 46.8596 19.7221 46.7788 19.5067 46.5634C19.3181 46.3749 19.2037 46.0855 19.3922 45.8969L22.2401 43.0491Z" fill="url(#paint0_linear)"/>
<path d="M23.3979 42.4299C23.2093 42.2415 23.3439 41.9452 23.566 41.723C23.7815 41.5076 24.0845 41.3662 24.273 41.5547L28.6491 45.9308C28.8309 46.1127 28.7031 46.4292 28.4875 46.6445C28.2653 46.8667 27.9555 46.9878 27.7738 46.8061L23.3979 42.4299Z" fill="url(#paint1_linear)"/>
<path d="M27.2487 39.5753C26.7975 40.0263 26.7908 40.5314 27.3161 41.0564L29.1943 42.9347C29.7196 43.4599 30.2244 43.4532 30.6889 42.9886C31.3016 42.376 30.9179 41.8845 30.6554 41.5815C30.4601 41.3593 30.5813 41.1034 30.8102 40.8747C31.1133 40.5717 31.3422 40.5178 31.6855 40.8611C32.5001 41.6757 32.352 42.8606 31.4093 43.8033C30.5611 44.6516 29.4434 44.9344 28.3191 43.81L26.4408 41.9318C25.3164 40.8074 25.6062 39.683 26.4544 38.8348C27.3902 37.899 28.5549 37.7307 29.3358 38.5116C29.686 38.8617 29.6254 39.0838 29.3291 39.3801C29.08 39.6292 28.8242 39.7369 28.6155 39.5416C28.3933 39.3464 27.8884 38.9357 27.2487 39.5753Z" fill="url(#paint2_linear)"/>
<path d="M29.0527 36.7749C28.8643 36.5864 28.9988 36.2901 29.221 36.068C29.4363 35.8526 29.7394 35.7111 29.9279 35.8997L31.7659 37.7377L31.2407 34.304C31.2138 34.1424 31.2608 34.028 31.3552 33.9338C31.5773 33.7116 32.0889 33.6577 32.3111 33.8799C32.3583 33.9269 32.4121 33.9943 32.4255 34.1021L32.7286 36.8153L36.4315 37.5827C36.5122 37.5961 36.5796 37.6367 36.6335 37.6904C36.8489 37.9059 36.8018 38.3974 36.546 38.6532C36.4315 38.7676 36.2699 38.835 36.0748 38.7878L32.8902 38.1347L32.9844 38.9561L34.3039 40.2756C34.4856 40.4575 34.3578 40.774 34.1422 40.9893C33.92 41.2115 33.6103 41.3326 33.4286 41.1509L29.0527 36.7749Z" fill="url(#paint3_linear)"/>
<path d="M35.6233 33.8936L36.6465 32.8702C36.8216 32.6952 37.0909 32.7625 37.2726 32.9443C37.4276 33.0991 37.5218 33.3684 37.3332 33.557L36.31 34.5803L37.6633 35.9335L39.5686 34.0282C39.7436 33.8532 40.0263 33.934 40.2351 34.1427C40.4168 34.3245 40.5245 34.6071 40.336 34.7956L37.9392 37.1924C37.7439 37.3877 37.4612 37.4819 37.2795 37.3002L32.9101 32.9309C32.7284 32.7491 32.8224 32.4665 33.0178 32.2711L35.4145 29.8744C35.603 29.6859 35.8856 29.7936 36.0675 29.9755C36.2761 30.1842 36.3569 30.4668 36.182 30.642L34.2766 32.5473L35.6233 33.8936Z" fill="url(#paint4_linear)"/>
<path d="M39.1376 26.1514C39.3262 25.9628 39.6156 26.0773 39.8041 26.2658C40.0128 26.4746 40.1003 26.7641 39.9253 26.9391L38.9424 27.922L42.8002 31.7797C42.982 31.9615 42.8542 32.2779 42.6386 32.4933C42.4164 32.7155 42.1066 32.8368 41.9248 32.6549L38.0671 28.7972L37.0774 29.7869C36.9024 29.9619 36.6196 29.8811 36.4042 29.6656C36.2157 29.4772 36.1013 29.1876 36.2898 28.9991L39.1376 26.1514Z" fill="url(#paint5_linear)"/>
<path d="M40.8718 16.699C41.0719 16.8992 41.3344 16.9994 41.5968 16.9994C41.8591 16.9994 42.1216 16.8993 42.3218 16.699C42.7223 16.2986 42.7223 15.6493 42.3218 15.249L39.6016 12.5289C39.2012 12.1284 38.5519 12.1284 38.1516 12.5289C37.7511 12.9293 37.7511 13.5786 38.1516 13.9789L40.8718 16.699Z" fill="url(#paint6_linear)"/>
<path d="M47.219 23.0462C47.4191 23.2464 47.6816 23.3466 47.944 23.3466C48.2064 23.3466 48.4689 23.2465 48.669 23.0462C49.0695 22.6458 49.0695 21.9965 48.669 21.5962L45.9489 18.876C45.5484 18.4756 44.8991 18.4756 44.4988 18.876C44.0984 19.2765 44.0984 19.9257 44.4988 20.3261L47.219 23.0462Z" fill="url(#paint7_linear)"/>
<path d="M58.6431 31.5701C58.2427 31.1697 57.5934 31.1697 57.1931 31.5701C56.7926 31.9706 56.7926 32.6198 57.1931 33.0202L57.5103 33.3373C57.7104 33.5375 57.9729 33.6377 58.2353 33.6377C58.4977 33.6377 58.7602 33.5376 58.9603 33.3373C59.3608 32.9369 59.3608 32.2876 58.9603 31.8873L58.6431 31.5701Z" fill="url(#paint8_linear)"/>
<path d="M52.296 25.2231C51.8956 24.8226 51.2463 24.8226 50.846 25.2231C50.4455 25.6235 50.4455 26.2728 50.846 26.6731L53.5662 29.3933C53.7663 29.5934 54.0288 29.6936 54.2912 29.6936C54.5535 29.6936 54.816 29.5936 55.0162 29.3933C55.4166 28.9928 55.4166 28.3435 55.0162 27.9432L52.296 25.2231Z" fill="url(#paint9_linear)"/>
<path d="M69.9781 26.5702C69.886 25.9671 69.5082 25.4381 68.9678 25.1551L66.8958 24.0705L65.374 21.1632C65.1914 20.8143 64.9104 20.5332 64.5609 20.3501L61.654 18.8287L60.1321 15.9214C59.9495 15.5723 59.6684 15.2914 59.3192 15.1085L56.4122 13.587L54.8909 10.6803C54.7081 10.3309 54.4269 10.0498 54.0777 9.86705L51.1712 8.34591L49.6502 5.43953C49.4675 5.09049 49.1864 4.80939 48.8371 4.62633L45.9302 3.10491L44.846 1.03348C44.5631 0.492892 44.0341 0.115137 43.4309 0.0229883C42.8279 -0.0695706 42.2102 0.133321 41.7787 0.564807C41.7787 0.564807 33.9829 8.36054 33.9828 8.36068C33.9827 8.36081 33.9825 8.36095 33.9823 8.36122L0.564104 41.7792C0.20043 42.1429 0 42.6264 0 43.1407C0 43.655 0.200294 44.1385 0.563967 44.5021L10.2961 54.2342C10.4884 54.4266 10.7491 54.5346 11.0211 54.5346H11.0242C11.2973 54.5338 11.5587 54.4241 11.7506 54.2299L11.7673 54.2125C12.3038 53.6785 13.0157 53.3845 13.773 53.3845C14.5324 53.3845 15.2465 53.6804 15.7837 54.2174C16.8895 55.3232 16.8924 57.1208 15.7922 58.2303C15.7847 58.2374 15.7762 58.2454 15.7713 58.2504C15.577 58.4423 15.4673 58.7037 15.4665 58.9768C15.4657 59.2498 15.5738 59.5119 15.7669 59.7049L25.499 69.437C25.8626 69.8007 26.3461 70.001 26.8604 70.001C27.3748 70.001 27.8582 69.8007 28.2219 69.437L69.4366 28.2223C69.8678 27.7908 70.0703 27.1733 69.9781 26.5702ZM60.9153 33.8431L60.4496 33.3774C60.0492 32.977 59.3999 32.977 58.9996 33.3774C58.5991 33.7779 58.5991 34.4272 58.9996 34.8275L59.4652 35.2931L26.8604 67.898L17.8695 58.9072C19.1113 57.0096 18.8994 54.4326 17.2339 52.7671C16.3095 51.8426 15.0804 51.3336 13.7731 51.3336C12.8065 51.3336 11.8825 51.612 11.093 52.1307L2.10302 43.1406L34.7077 10.5357L35.1734 11.0014C35.3735 11.2017 35.636 11.3018 35.8984 11.3018C36.1607 11.3018 36.4232 11.2017 36.6234 11.0014C37.0239 10.601 37.0239 9.95182 36.6234 9.55137L36.1577 9.0857L43.1079 2.13557L44.1309 4.09039C44.3136 4.43957 44.5948 4.72066 44.944 4.90359L47.8509 6.42501L49.3719 9.33152C49.5547 9.6807 49.836 9.9618 50.1851 10.1446L53.0917 11.6656L54.6129 14.5722C54.7956 14.9216 55.077 15.2028 55.4261 15.3856L58.3332 16.907L59.8547 19.8141C60.0374 20.1631 60.3185 20.4443 60.6678 20.6273L63.5749 22.1487L65.0968 25.0562C65.2795 25.4052 65.5606 25.6863 65.9098 25.8691L67.8654 26.8927L60.9153 33.8431Z" fill="url(#paint10_linear)"/>
<path d="M39.0807 18.418C38.6355 17.9729 38.0437 17.7276 37.4142 17.7276C36.7848 17.7276 36.1928 17.9727 35.7478 18.4179L25.3841 28.7816C24.9836 29.182 24.9836 29.8313 25.3841 30.2316C25.7845 30.6321 26.4338 30.6321 26.8341 30.2316L37.1978 19.8679C37.2719 19.7938 37.3564 19.7782 37.4142 19.7782C37.4721 19.7782 37.5566 19.7938 37.6307 19.8679L51.4023 33.6395C51.5217 33.7588 51.5217 33.953 51.4023 34.0723L41.0386 44.436C40.6382 44.8365 40.6382 45.4858 41.0386 45.8861C41.2388 46.0862 41.5013 46.1865 41.7637 46.1865C42.026 46.1865 42.2885 46.0864 42.4887 45.8861L52.8524 35.5224C53.7713 34.6035 53.7713 33.1083 52.8524 32.1895L39.0807 18.418Z" fill="url(#paint11_linear)"/>
<path d="M37.6649 47.8099L27.6985 57.7763C27.5792 57.8955 27.3852 57.8955 27.2657 57.7763L13.494 44.0046C13.4199 43.9305 13.4044 43.8462 13.4044 43.7884C13.4044 43.7305 13.42 43.646 13.4941 43.5719L23.4605 33.6055C23.861 33.2051 23.861 32.5558 23.4605 32.1555C23.0601 31.7551 22.4108 31.7551 22.0105 32.1555L12.0439 42.1217C11.5988 42.5669 11.3536 43.1588 11.3536 43.7882C11.3536 44.4177 11.5988 45.0097 12.0439 45.4547L25.8156 59.2265C26.275 59.6859 26.8785 59.9156 27.4821 59.9156C28.0856 59.9156 28.6892 59.6859 29.1486 59.2264L39.1149 49.26C39.5154 48.8595 39.5154 48.2102 39.1149 47.8099C38.7146 47.4095 38.0654 47.4095 37.6649 47.8099Z" fill="url(#paint12_linear)"/>
</g>
<path d="M103.232 43.64C104.032 43.64 104.704 43.544 105.248 43.352C105.792 43.16 106.224 42.904 106.544 42.584C106.875 42.264 107.109 41.8907 107.248 41.464C107.397 41.0373 107.472 40.584 107.472 40.104C107.472 39.6027 107.392 39.1547 107.232 38.76C107.072 38.3547 106.821 38.0133 106.48 37.736C106.139 37.448 105.696 37.2293 105.152 37.08C104.619 36.9307 103.973 36.856 103.216 36.856H98.88V43.64H103.232ZM98.88 27.192V33.88H102.304C103.776 33.88 104.885 33.6133 105.632 33.08C106.389 32.5467 106.768 31.6987 106.768 30.536C106.768 29.3307 106.427 28.472 105.744 27.96C105.061 27.448 103.995 27.192 102.544 27.192H98.88ZM102.544 23.864C104.059 23.864 105.355 24.008 106.432 24.296C107.509 24.584 108.389 24.9947 109.072 25.528C109.765 26.0613 110.272 26.7067 110.592 27.464C110.912 28.2213 111.072 29.0747 111.072 30.024C111.072 30.568 110.992 31.0907 110.832 31.592C110.672 32.0827 110.421 32.5467 110.08 32.984C109.749 33.4107 109.323 33.8 108.8 34.152C108.288 34.504 107.675 34.8027 106.96 35.048C110.139 35.7627 111.728 37.48 111.728 40.2C111.728 41.1813 111.541 42.088 111.168 42.92C110.795 43.752 110.251 44.472 109.536 45.08C108.821 45.6773 107.941 46.1467 106.896 46.488C105.851 46.8293 104.656 47 103.312 47H94.576V23.864H102.544ZM128.877 30.584V47H126.461C125.939 47 125.608 46.76 125.469 46.28L125.197 44.968C124.525 45.6507 123.784 46.2053 122.973 46.632C122.163 47.048 121.208 47.256 120.109 47.256C119.213 47.256 118.419 47.1067 117.725 46.808C117.043 46.4987 116.467 46.0667 115.997 45.512C115.528 44.9573 115.171 44.3013 114.925 43.544C114.691 42.776 114.573 41.9333 114.573 41.016V30.584H118.525V41.016C118.525 42.0187 118.755 42.7973 119.213 43.352C119.683 43.896 120.381 44.168 121.309 44.168C121.992 44.168 122.632 44.0187 123.229 43.72C123.827 43.4107 124.392 42.9893 124.925 42.456V30.584H128.877ZM147.708 30.584L138.764 51.512C138.646 51.7893 138.492 51.9973 138.3 52.136C138.118 52.2853 137.836 52.36 137.452 52.36H134.508L137.58 45.768L130.94 30.584H134.412C134.721 30.584 134.961 30.6587 135.132 30.808C135.313 30.9573 135.446 31.128 135.532 31.32L139.02 39.832C139.137 40.12 139.233 40.408 139.308 40.696C139.393 40.984 139.473 41.2773 139.548 41.576C139.644 41.2773 139.74 40.984 139.836 40.696C139.932 40.3973 140.038 40.104 140.156 39.816L143.452 31.32C143.537 31.1067 143.676 30.9307 143.868 30.792C144.07 30.6533 144.294 30.584 144.54 30.584H147.708ZM163.861 27.4H156.885V47H152.581V27.4H145.605V23.864H163.861V27.4ZM170.204 30.584V47H166.236V30.584H170.204ZM170.748 25.8C170.748 26.1413 170.679 26.4613 170.54 26.76C170.402 27.0587 170.215 27.32 169.98 27.544C169.756 27.768 169.49 27.9493 169.18 28.088C168.871 28.216 168.54 28.28 168.188 28.28C167.847 28.28 167.522 28.216 167.212 28.088C166.914 27.9493 166.652 27.768 166.428 27.544C166.204 27.32 166.023 27.0587 165.884 26.76C165.756 26.4613 165.692 26.1413 165.692 25.8C165.692 25.448 165.756 25.1173 165.884 24.808C166.023 24.4987 166.204 24.232 166.428 24.008C166.652 23.784 166.914 23.608 167.212 23.48C167.522 23.3413 167.847 23.272 168.188 23.272C168.54 23.272 168.871 23.3413 169.18 23.48C169.49 23.608 169.756 23.784 169.98 24.008C170.215 24.232 170.402 24.4987 170.54 24.808C170.679 25.1173 170.748 25.448 170.748 25.8ZM185.993 34.056C185.876 34.2053 185.759 34.3227 185.641 34.408C185.535 34.4933 185.375 34.536 185.161 34.536C184.959 34.536 184.761 34.4773 184.569 34.36C184.377 34.232 184.148 34.0933 183.881 33.944C183.615 33.784 183.295 33.6453 182.921 33.528C182.559 33.4 182.105 33.336 181.561 33.336C180.868 33.336 180.26 33.464 179.737 33.72C179.215 33.9653 178.777 34.3227 178.425 34.792C178.084 35.2613 177.828 35.832 177.657 36.504C177.487 37.1653 177.401 37.9173 177.401 38.76C177.401 39.6347 177.492 40.4133 177.673 41.096C177.865 41.7787 178.137 42.3547 178.489 42.824C178.841 43.2827 179.268 43.6347 179.769 43.88C180.271 44.1147 180.836 44.232 181.465 44.232C182.095 44.232 182.601 44.1573 182.985 44.008C183.38 43.848 183.711 43.6773 183.977 43.496C184.244 43.304 184.473 43.1333 184.665 42.984C184.868 42.824 185.092 42.744 185.337 42.744C185.657 42.744 185.897 42.8667 186.057 43.112L187.193 44.552C186.756 45.064 186.281 45.496 185.769 45.848C185.257 46.1893 184.724 46.4667 184.169 46.68C183.625 46.8827 183.06 47.0267 182.473 47.112C181.897 47.1973 181.321 47.24 180.745 47.24C179.732 47.24 178.777 47.0533 177.881 46.68C176.985 46.296 176.201 45.7413 175.529 45.016C174.857 44.2907 174.324 43.4053 173.929 42.36C173.545 41.304 173.353 40.104 173.353 38.76C173.353 37.5547 173.524 36.44 173.865 35.416C174.217 34.3813 174.729 33.4907 175.401 32.744C176.073 31.9867 176.905 31.3947 177.897 30.968C178.889 30.5413 180.031 30.328 181.321 30.328C182.548 30.328 183.62 30.5253 184.537 30.92C185.465 31.3147 186.297 31.88 187.033 32.616L185.993 34.056ZM193.623 23.224V36.84H194.359C194.625 36.84 194.833 36.808 194.983 36.744C195.143 36.6693 195.303 36.5253 195.463 36.312L199.543 31.272C199.713 31.048 199.9 30.8773 200.103 30.76C200.316 30.6427 200.588 30.584 200.919 30.584H204.535L199.431 36.68C199.068 37.16 198.673 37.528 198.247 37.784C198.471 37.944 198.668 38.1307 198.839 38.344C199.02 38.5573 199.191 38.7867 199.351 39.032L204.823 47H201.255C200.945 47 200.679 46.952 200.455 46.856C200.231 46.7493 200.044 46.5627 199.895 46.296L195.703 40.072C195.553 39.8267 195.399 39.6667 195.239 39.592C195.079 39.5173 194.839 39.48 194.519 39.48H193.623V47H189.671V23.224H193.623ZM216.497 36.904C216.497 36.392 216.422 35.912 216.273 35.464C216.134 35.0053 215.921 34.6053 215.633 34.264C215.345 33.9227 214.977 33.656 214.529 33.464C214.091 33.2613 213.579 33.16 212.993 33.16C211.851 33.16 210.95 33.4853 210.289 34.136C209.638 34.7867 209.222 35.7093 209.041 36.904H216.497ZM208.961 39.288C209.025 40.1307 209.174 40.8613 209.409 41.48C209.643 42.088 209.953 42.5947 210.337 43C210.721 43.3947 211.174 43.6933 211.697 43.896C212.23 44.088 212.817 44.184 213.457 44.184C214.097 44.184 214.646 44.1093 215.105 43.96C215.574 43.8107 215.979 43.6453 216.321 43.464C216.673 43.2827 216.977 43.1173 217.233 42.968C217.499 42.8187 217.755 42.744 218.001 42.744C218.331 42.744 218.577 42.8667 218.737 43.112L219.873 44.552C219.435 45.064 218.945 45.496 218.401 45.848C217.857 46.1893 217.286 46.4667 216.689 46.68C216.102 46.8827 215.499 47.0267 214.881 47.112C214.273 47.1973 213.681 47.24 213.105 47.24C211.963 47.24 210.902 47.0533 209.921 46.68C208.939 46.296 208.086 45.736 207.361 45C206.635 44.2533 206.065 43.336 205.649 42.248C205.233 41.1493 205.025 39.88 205.025 38.44C205.025 37.32 205.206 36.2693 205.569 35.288C205.931 34.296 206.449 33.4373 207.121 32.712C207.803 31.976 208.63 31.3947 209.601 30.968C210.582 30.5413 211.686 30.328 212.913 30.328C213.947 30.328 214.902 30.4933 215.777 30.824C216.651 31.1547 217.403 31.64 218.033 32.28C218.662 32.9093 219.153 33.688 219.505 34.616C219.867 35.5333 220.049 36.584 220.049 37.768C220.049 38.3653 219.985 38.7707 219.857 38.984C219.729 39.1867 219.483 39.288 219.121 39.288H208.961ZM228.33 47.256C226.901 47.256 225.802 46.856 225.034 46.056C224.277 45.2453 223.898 44.1307 223.898 42.712V33.544H222.218C222.005 33.544 221.824 33.4747 221.674 33.336C221.525 33.1973 221.45 32.9893 221.45 32.712V31.144L224.09 30.712L224.922 26.232C224.976 26.0187 225.077 25.8533 225.226 25.736C225.376 25.6187 225.568 25.56 225.802 25.56H227.85V30.728H232.234V33.544H227.85V42.44C227.85 42.952 227.973 43.352 228.218 43.64C228.474 43.928 228.821 44.072 229.258 44.072C229.504 44.072 229.706 44.0453 229.866 43.992C230.037 43.928 230.181 43.864 230.298 43.8C230.426 43.736 230.538 43.6773 230.634 43.624C230.73 43.56 230.826 43.528 230.922 43.528C231.04 43.528 231.136 43.56 231.21 43.624C231.285 43.6773 231.365 43.7627 231.45 43.88L232.634 45.8C232.058 46.28 231.397 46.6427 230.65 46.888C229.904 47.1333 229.13 47.256 228.33 47.256ZM244.781 33.784C244.674 33.9547 244.562 34.0773 244.445 34.152C244.327 34.216 244.178 34.248 243.997 34.248C243.805 34.248 243.597 34.1947 243.373 34.088C243.159 33.9813 242.909 33.864 242.621 33.736C242.333 33.5973 242.002 33.4747 241.628 33.368C241.266 33.2613 240.834 33.208 240.333 33.208C239.554 33.208 238.941 33.3733 238.493 33.704C238.055 34.0347 237.837 34.4667 237.837 35C237.837 35.352 237.949 35.6507 238.173 35.896C238.407 36.1307 238.711 36.3387 239.085 36.52C239.469 36.7013 239.901 36.8667 240.381 37.016C240.861 37.1547 241.346 37.3093 241.837 37.48C242.338 37.6507 242.829 37.848 243.309 38.072C243.789 38.2853 244.215 38.5627 244.589 38.904C244.973 39.2347 245.277 39.6347 245.501 40.104C245.735 40.5733 245.853 41.1387 245.853 41.8C245.853 42.5893 245.709 43.32 245.421 43.992C245.143 44.6533 244.727 45.2293 244.173 45.72C243.618 46.2 242.93 46.5787 242.109 46.856C241.298 47.1227 240.359 47.256 239.293 47.256C238.727 47.256 238.173 47.2027 237.629 47.096C237.095 47 236.578 46.8613 236.077 46.68C235.586 46.4987 235.127 46.2853 234.701 46.04C234.285 45.7947 233.917 45.528 233.597 45.24L234.509 43.736C234.626 43.5547 234.765 43.416 234.924 43.32C235.084 43.224 235.287 43.176 235.533 43.176C235.778 43.176 236.007 43.2453 236.221 43.384C236.445 43.5227 236.701 43.672 236.989 43.832C237.277 43.992 237.613 44.1413 237.997 44.28C238.391 44.4187 238.887 44.488 239.485 44.488C239.954 44.488 240.354 44.4347 240.685 44.328C241.026 44.2107 241.303 44.0613 241.517 43.88C241.741 43.6987 241.9 43.4907 241.997 43.256C242.103 43.0107 242.157 42.76 242.157 42.504C242.157 42.12 242.039 41.8053 241.805 41.56C241.581 41.3147 241.277 41.1013 240.892 40.92C240.519 40.7387 240.087 40.5787 239.597 40.44C239.117 40.2907 238.621 40.1307 238.109 39.96C237.607 39.7893 237.111 39.592 236.621 39.368C236.141 39.1333 235.709 38.84 235.325 38.488C234.951 38.136 234.647 37.704 234.413 37.192C234.189 36.68 234.077 36.0613 234.077 35.336C234.077 34.664 234.21 34.024 234.477 33.416C234.743 32.808 235.133 32.28 235.645 31.832C236.167 31.3733 236.813 31.0107 237.581 30.744C238.359 30.4667 239.255 30.328 240.269 30.328C241.399 30.328 242.429 30.5147 243.357 30.888C244.285 31.2613 245.058 31.752 245.677 32.36L244.781 33.784Z" fill="#4F4F4F"/>
<defs>
<linearGradient id="paint0_linear" x1="22.6426" y1="42.9526" x2="22.6426" y2="49.6409" gradientUnits="userSpaceOnUse">
<stop stop-color="#D66DF0"/>
<stop offset="1" stop-color="#B66DF0"/>
</linearGradient>
<linearGradient id="paint1_linear" x1="26.0221" y1="41.4667" x2="26.0221" y2="46.8944" gradientUnits="userSpaceOnUse">
<stop stop-color="#D66DF0"/>
<stop offset="1" stop-color="#B66DF0"/>
</linearGradient>
<linearGradient id="paint2_linear" x1="28.9597" y1="38.0163" x2="28.9597" y2="44.5504" gradientUnits="userSpaceOnUse">
<stop stop-color="#D66DF0"/>
<stop offset="1" stop-color="#B66DF0"/>
</linearGradient>
<linearGradient id="paint3_linear" x1="32.8666" y1="33.7378" x2="32.8666" y2="41.2391" gradientUnits="userSpaceOnUse">
<stop stop-color="#D66DF0"/>
<stop offset="1" stop-color="#B66DF0"/>
</linearGradient>
<linearGradient id="paint4_linear" x1="36.6238" y1="29.7756" x2="36.6238" y2="37.3974" gradientUnits="userSpaceOnUse">
<stop stop-color="#D66DF0"/>
<stop offset="1" stop-color="#B66DF0"/>
</linearGradient>
<linearGradient id="paint5_linear" x1="39.5402" y1="26.0549" x2="39.5402" y2="32.7433" gradientUnits="userSpaceOnUse">
<stop stop-color="#D66DF0"/>
<stop offset="1" stop-color="#B66DF0"/>
</linearGradient>
<linearGradient id="paint6_linear" x1="40.2367" y1="12.2285" x2="40.2367" y2="16.9994" gradientUnits="userSpaceOnUse">
<stop stop-color="#D66DF0"/>
<stop offset="1" stop-color="#B66DF0"/>
</linearGradient>
<linearGradient id="paint7_linear" x1="46.5839" y1="18.5757" x2="46.5839" y2="23.3466" gradientUnits="userSpaceOnUse">
<stop stop-color="#D66DF0"/>
<stop offset="1" stop-color="#B66DF0"/>
</linearGradient>
<linearGradient id="paint8_linear" x1="58.0767" y1="31.2698" x2="58.0767" y2="33.6377" gradientUnits="userSpaceOnUse">
<stop stop-color="#D66DF0"/>
<stop offset="1" stop-color="#B66DF0"/>
</linearGradient>
<linearGradient id="paint9_linear" x1="52.9311" y1="24.9227" x2="52.9311" y2="29.6936" gradientUnits="userSpaceOnUse">
<stop stop-color="#D66DF0"/>
<stop offset="1" stop-color="#B66DF0"/>
</linearGradient>
<linearGradient id="paint10_linear" x1="35" y1="0.000976562" x2="35" y2="70.001" gradientUnits="userSpaceOnUse">
<stop stop-color="#D66DF0"/>
<stop offset="1" stop-color="#B66DF0"/>
</linearGradient>
<linearGradient id="paint11_linear" x1="39.3126" y1="17.7276" x2="39.3126" y2="46.1865" gradientUnits="userSpaceOnUse">
<stop stop-color="#D66DF0"/>
<stop offset="1" stop-color="#B66DF0"/>
</linearGradient>
<linearGradient id="paint12_linear" x1="25.3845" y1="31.8552" x2="25.3845" y2="59.9156" gradientUnits="userSpaceOnUse">
<stop stop-color="#D66DF0"/>
<stop offset="1" stop-color="#B66DF0"/>
</linearGradient>
<clipPath id="clip0">
<rect width="70" height="70" fill="white"/>
</clipPath>
</defs>
</svg>
