<svg width="240" height="70" viewBox="0 0 240 70" fill="none" xmlns="http://www.w3.org/2000/svg">
<g clip-path="url(#clip0)">
<path d="M20.5432 43.0491C20.7174 42.8606 20.9847 42.975 21.1589 43.1636C21.3516 43.3723 21.4325 43.6618 21.2709 43.8368L20.3629 44.8198L23.9263 48.6774C24.0943 48.8593 23.9762 49.1756 23.777 49.3911C23.5718 49.6133 23.2857 49.7344 23.1178 49.5527L19.5544 45.6951L18.6402 46.6848C18.4787 46.8596 18.2174 46.7788 18.0184 46.5635C17.8442 46.375 17.7385 46.0855 17.9127 45.897L20.5432 43.0491Z" fill="url(#paint0_linear)"/>
<path d="M21.6127 42.43C21.4385 42.2416 21.5628 41.9453 21.768 41.7232C21.967 41.5077 22.2469 41.3663 22.421 41.5549L26.4632 45.931C26.6312 46.1128 26.5131 46.4293 26.314 46.6446C26.1088 46.8668 25.8226 46.9879 25.6547 46.8062L21.6127 42.43Z" fill="url(#paint1_linear)"/>
<path d="M25.1697 39.5753C24.7529 40.0264 24.7467 40.5314 25.2319 41.0564L26.9669 42.9348C27.4521 43.4599 27.9183 43.4532 28.3474 42.9887C28.9133 42.376 28.559 41.8845 28.3165 41.5816C28.136 41.3594 28.2481 41.1034 28.4595 40.8747C28.7394 40.5717 28.9508 40.5179 29.268 40.8612C30.0204 41.6758 29.8836 42.8607 29.0129 43.8034C28.2294 44.6517 27.197 44.9344 26.1584 43.8101L24.4235 41.9318C23.3849 40.8075 23.6525 39.6831 24.436 38.8349C25.3004 37.899 26.3762 37.7307 27.0976 38.5117C27.421 38.8618 27.3651 39.0838 27.0914 39.3801C26.8613 39.6292 26.625 39.7369 26.4322 39.5417C26.227 39.3465 25.7606 38.9358 25.1697 39.5753Z" fill="url(#paint2_linear)"/>
<path d="M26.8361 36.7749C26.662 36.5864 26.7863 36.2901 26.9915 36.068C27.1904 35.8526 27.4704 35.7111 27.6446 35.8997L29.3422 37.7377L28.8572 34.304C28.8323 34.1424 28.8757 34.028 28.9629 33.9338C29.1681 33.7116 29.6407 33.6577 29.8459 33.8799C29.8894 33.9269 29.9392 33.9943 29.9516 34.1021L30.2316 36.8153L33.6519 37.5827C33.7264 37.5961 33.7887 37.6367 33.8385 37.6904C34.0375 37.9059 33.9939 38.3974 33.7576 38.6532C33.6519 38.7676 33.5027 38.835 33.3224 38.7878L30.3808 38.1347L30.4678 38.9561L31.6866 40.2756C31.8545 40.4575 31.7364 40.774 31.5372 40.9893C31.332 41.2115 31.046 41.3326 30.8781 41.1509L26.8361 36.7749Z" fill="url(#paint3_linear)"/>
<path d="M32.9053 33.8936L33.8504 32.8703C34.0122 32.6953 34.261 32.7625 34.4288 32.9444C34.5719 33.0991 34.6589 33.3685 34.4848 33.557L33.5396 34.5804L34.7896 35.9336L36.5496 34.0283C36.7112 33.8533 36.9724 33.9341 37.1652 34.1427C37.3331 34.3246 37.4326 34.6072 37.2584 34.7957L35.0445 37.1925C34.8641 37.3877 34.603 37.4819 34.4351 37.3002L30.3991 32.931C30.2313 32.7491 30.3182 32.4665 30.4986 32.2712L32.7125 29.8745C32.8866 29.6859 33.1476 29.7937 33.3156 29.9755C33.5083 30.1843 33.583 30.4669 33.4214 30.642L31.6614 32.5473L32.9053 33.8936Z" fill="url(#paint4_linear)"/>
<path d="M36.1515 26.1514C36.3257 25.9629 36.593 26.0773 36.7672 26.2659C36.9599 26.4746 37.0407 26.7642 36.8791 26.9392L35.9712 27.9221L39.5346 31.7797C39.7026 31.9616 39.5845 32.2779 39.3853 32.4934C39.1801 32.7156 38.894 32.8368 38.726 32.655L35.1627 28.7972L34.2485 29.7869C34.0869 29.9619 33.8256 29.8811 33.6267 29.6657C33.4525 29.4773 33.3468 29.1877 33.521 28.9991L36.1515 26.1514Z" fill="url(#paint5_linear)"/>
<path d="M37.7533 16.699C37.9382 16.8992 38.1807 16.9994 38.423 16.9994C38.6653 16.9994 38.9078 16.8993 39.0927 16.699C39.4626 16.2986 39.4626 15.6493 39.0927 15.249L36.5801 12.5289C36.2102 12.1284 35.6104 12.1284 35.2407 12.5289C34.8708 12.9293 34.8708 13.5786 35.2407 13.9789L37.7533 16.699Z" fill="url(#paint6_linear)"/>
<path d="M43.6163 23.0462C43.8012 23.2464 44.0436 23.3466 44.286 23.3466C44.5283 23.3466 44.7708 23.2465 44.9557 23.0462C45.3256 22.6458 45.3256 21.9965 44.9557 21.5962L42.4431 18.876C42.0732 18.4756 41.4734 18.4756 41.1037 18.876C40.7338 19.2765 40.7338 19.9257 41.1037 20.3261L43.6163 23.0462Z" fill="url(#paint7_linear)"/>
<path d="M54.1687 31.5701C53.7988 31.1697 53.1991 31.1697 52.8293 31.5701C52.4594 31.9706 52.4594 32.6198 52.8293 33.0202L53.1223 33.3373C53.3072 33.5375 53.5497 33.6377 53.792 33.6377C54.0344 33.6377 54.2768 33.5376 54.4617 33.3373C54.8316 32.9369 54.8316 32.2876 54.4617 31.8873L54.1687 31.5701Z" fill="url(#paint8_linear)"/>
<path d="M48.3059 25.2232C47.936 24.8227 47.3363 24.8227 46.9665 25.2232C46.5966 25.6236 46.5966 26.2729 46.9665 26.6732L49.4792 29.3934C49.664 29.5935 49.9065 29.6938 50.1489 29.6938C50.3912 29.6938 50.6337 29.5937 50.8186 29.3934C51.1885 28.9929 51.1885 28.3437 50.8186 27.9433L48.3059 25.2232Z" fill="url(#paint9_linear)"/>
<path d="M64.6389 26.5702C64.5538 25.9671 64.2048 25.4381 63.7056 25.1551L61.7917 24.0705L60.386 21.1632C60.2174 20.8143 59.9578 20.5332 59.635 20.3501L56.9499 18.8287L55.5442 15.9214C55.3754 15.5723 55.1158 15.2914 54.7933 15.1085L52.108 13.587L50.7028 10.6803C50.5339 10.3309 50.2742 10.0498 49.9516 9.86705L47.2669 8.34591L45.8619 5.43953C45.6932 5.09049 45.4336 4.80939 45.1109 4.62633L42.4258 3.10491L41.4243 1.03348C41.163 0.492893 40.6744 0.115137 40.1172 0.0229883C39.5602 -0.0695706 38.9896 0.133321 38.591 0.564807C38.591 0.564807 31.3901 8.36054 31.39 8.36068C31.3898 8.36081 31.3897 8.36095 31.3895 8.36122L0.521064 41.7792C0.185138 42.1429 0 42.6264 0 43.1407C0 43.655 0.185012 44.1385 0.520937 44.5021L9.51048 54.2342C9.68817 54.4266 9.929 54.5346 10.1802 54.5346H10.1831C10.4353 54.5338 10.6768 54.4241 10.8541 54.2299L10.8695 54.2125C11.365 53.6785 12.0226 53.3845 12.7221 53.3845C13.4236 53.3845 14.0832 53.6804 14.5794 54.2174C15.6008 55.3232 15.6035 57.1208 14.5873 58.2303C14.5803 58.2374 14.5725 58.2454 14.5679 58.2504C14.3885 58.4423 14.2872 58.7037 14.2864 58.9768C14.2857 59.2498 14.3856 59.5119 14.5639 59.7049L23.5534 69.437C23.8894 69.8007 24.3359 70.001 24.811 70.001C25.2861 70.001 25.7327 69.8007 26.0686 69.437L64.1387 28.2223C64.537 27.7908 64.724 27.1733 64.6389 26.5702ZM56.2675 33.8431L55.8374 33.3774C55.4675 32.977 54.8678 32.977 54.498 33.3774C54.1281 33.7779 54.1281 34.4272 54.498 34.8275L54.9281 35.2931L24.811 67.898L16.5061 58.9072C17.6531 57.0096 17.4574 54.4326 15.919 52.7671C15.0651 51.8426 13.9298 51.3336 12.7222 51.3336C11.8294 51.3336 10.9759 51.612 10.2466 52.1307L1.94256 43.1406L32.0596 10.5357L32.4897 11.0014C32.6746 11.2017 32.917 11.3018 33.1594 11.3018C33.4017 11.3018 33.6442 11.2017 33.8291 11.0014C34.199 10.601 34.199 9.95182 33.8291 9.55137L33.399 9.0857L39.8188 2.13557L40.7638 4.09039C40.9325 4.43957 41.1923 4.72066 41.5148 4.90359L44.2 6.42501L45.6049 9.33152C45.7738 9.6807 46.0336 9.9618 46.3561 10.1446L49.0408 11.6656L50.446 14.5722C50.6148 14.9216 50.8747 15.2028 51.1972 15.3856L53.8825 16.907L55.2879 19.8141C55.4566 20.1631 55.7163 20.4443 56.039 20.6273L58.7242 22.1487L60.1301 25.0562C60.2988 25.4052 60.5584 25.6863 60.881 25.8691L62.6874 26.8927L56.2675 33.8431Z" fill="url(#paint10_linear)"/>
<path d="M36.0989 18.418C35.6877 17.9728 35.141 17.7275 34.5596 17.7275C33.9781 17.7275 33.4313 17.9727 33.0202 18.4178L23.4473 28.7815C23.0774 29.182 23.0774 29.8313 23.4473 30.2316C23.8172 30.632 24.4169 30.632 24.7867 30.2316L34.3596 19.8679C34.4281 19.7938 34.5061 19.7782 34.5596 19.7782C34.613 19.7782 34.691 19.7938 34.7595 19.8679L47.4804 33.6394C47.5906 33.7588 47.5906 33.9529 47.4804 34.0723L37.9074 44.436C37.5375 44.8364 37.5375 45.4857 37.9074 45.886C38.0923 46.0862 38.3348 46.1864 38.5771 46.1864C38.8195 46.1864 39.062 46.0863 39.2468 45.886L48.8198 35.5223C49.6686 34.6034 49.6686 33.1083 48.8198 32.1894L36.0989 18.418Z" fill="url(#paint11_linear)"/>
<path d="M34.7912 47.81L25.5852 57.7764C25.4749 57.8956 25.2957 57.8956 25.1854 57.7764L12.4644 44.0047C12.396 43.9306 12.3817 43.8462 12.3817 43.7884C12.3817 43.7306 12.3961 43.6461 12.4646 43.572L21.6705 33.6056C22.0404 33.2052 22.0404 32.5559 21.6705 32.1556C21.3006 31.7551 20.7009 31.7551 20.3311 32.1556L11.125 42.1218C10.7138 42.567 10.4874 43.1588 10.4874 43.7883C10.4874 44.4177 10.7138 45.0097 11.125 45.4547L23.846 59.2266C24.2703 59.6859 24.8277 59.9156 25.3853 59.9156C25.9427 59.9156 26.5003 59.6859 26.9246 59.2264L36.1306 49.26C36.5005 48.8596 36.5005 48.2103 36.1306 47.81C35.7608 47.4095 35.1611 47.4095 34.7912 47.81Z" fill="url(#paint12_linear)"/>
</g>
<path d="M96.232 43.64C97.032 43.64 97.704 43.544 98.248 43.352C98.792 43.16 99.224 42.904 99.544 42.584C99.8747 42.264 100.109 41.8907 100.248 41.464C100.397 41.0373 100.472 40.584 100.472 40.104C100.472 39.6027 100.392 39.1547 100.232 38.76C100.072 38.3547 99.8213 38.0133 99.48 37.736C99.1387 37.448 98.696 37.2293 98.152 37.08C97.6187 36.9307 96.9733 36.856 96.216 36.856H91.88V43.64H96.232ZM91.88 27.192V33.88H95.304C96.776 33.88 97.8853 33.6133 98.632 33.08C99.3893 32.5467 99.768 31.6987 99.768 30.536C99.768 29.3307 99.4267 28.472 98.744 27.96C98.0613 27.448 96.9947 27.192 95.544 27.192H91.88ZM95.544 23.864C97.0587 23.864 98.3547 24.008 99.432 24.296C100.509 24.584 101.389 24.9947 102.072 25.528C102.765 26.0613 103.272 26.7067 103.592 27.464C103.912 28.2213 104.072 29.0747 104.072 30.024C104.072 30.568 103.992 31.0907 103.832 31.592C103.672 32.0827 103.421 32.5467 103.08 32.984C102.749 33.4107 102.323 33.8 101.8 34.152C101.288 34.504 100.675 34.8027 99.96 35.048C103.139 35.7627 104.728 37.48 104.728 40.2C104.728 41.1813 104.541 42.088 104.168 42.92C103.795 43.752 103.251 44.472 102.536 45.08C101.821 45.6773 100.941 46.1467 99.896 46.488C98.8507 46.8293 97.656 47 96.312 47H87.576V23.864H95.544ZM121.877 30.584V47H119.461C118.939 47 118.608 46.76 118.469 46.28L118.197 44.968C117.525 45.6507 116.784 46.2053 115.973 46.632C115.163 47.048 114.208 47.256 113.109 47.256C112.213 47.256 111.419 47.1067 110.725 46.808C110.043 46.4987 109.467 46.0667 108.997 45.512C108.528 44.9573 108.171 44.3013 107.925 43.544C107.691 42.776 107.573 41.9333 107.573 41.016V30.584H111.525V41.016C111.525 42.0187 111.755 42.7973 112.213 43.352C112.683 43.896 113.381 44.168 114.309 44.168C114.992 44.168 115.632 44.0187 116.229 43.72C116.827 43.4107 117.392 42.9893 117.925 42.456V30.584H121.877ZM140.708 30.584L131.764 51.512C131.646 51.7893 131.492 51.9973 131.3 52.136C131.118 52.2853 130.836 52.36 130.452 52.36H127.508L130.58 45.768L123.94 30.584H127.412C127.721 30.584 127.961 30.6587 128.132 30.808C128.313 30.9573 128.446 31.128 128.532 31.32L132.02 39.832C132.137 40.12 132.233 40.408 132.308 40.696C132.393 40.984 132.473 41.2773 132.548 41.576C132.644 41.2773 132.74 40.984 132.836 40.696C132.932 40.3973 133.038 40.104 133.156 39.816L136.452 31.32C136.537 31.1067 136.676 30.9307 136.868 30.792C137.07 30.6533 137.294 30.584 137.54 30.584H140.708ZM156.861 27.4H149.885V47H145.581V27.4H138.605V23.864H156.861V27.4ZM163.204 30.584V47H159.236V30.584H163.204ZM163.748 25.8C163.748 26.1413 163.679 26.4613 163.54 26.76C163.402 27.0587 163.215 27.32 162.98 27.544C162.756 27.768 162.49 27.9493 162.18 28.088C161.871 28.216 161.54 28.28 161.188 28.28C160.847 28.28 160.522 28.216 160.212 28.088C159.914 27.9493 159.652 27.768 159.428 27.544C159.204 27.32 159.023 27.0587 158.884 26.76C158.756 26.4613 158.692 26.1413 158.692 25.8C158.692 25.448 158.756 25.1173 158.884 24.808C159.023 24.4987 159.204 24.232 159.428 24.008C159.652 23.784 159.914 23.608 160.212 23.48C160.522 23.3413 160.847 23.272 161.188 23.272C161.54 23.272 161.871 23.3413 162.18 23.48C162.49 23.608 162.756 23.784 162.98 24.008C163.215 24.232 163.402 24.4987 163.54 24.808C163.679 25.1173 163.748 25.448 163.748 25.8ZM178.993 34.056C178.876 34.2053 178.759 34.3227 178.641 34.408C178.535 34.4933 178.375 34.536 178.161 34.536C177.959 34.536 177.761 34.4773 177.569 34.36C177.377 34.232 177.148 34.0933 176.881 33.944C176.615 33.784 176.295 33.6453 175.921 33.528C175.559 33.4 175.105 33.336 174.561 33.336C173.868 33.336 173.26 33.464 172.737 33.72C172.215 33.9653 171.777 34.3227 171.425 34.792C171.084 35.2613 170.828 35.832 170.657 36.504C170.487 37.1653 170.401 37.9173 170.401 38.76C170.401 39.6347 170.492 40.4133 170.673 41.096C170.865 41.7787 171.137 42.3547 171.489 42.824C171.841 43.2827 172.268 43.6347 172.769 43.88C173.271 44.1147 173.836 44.232 174.465 44.232C175.095 44.232 175.601 44.1573 175.985 44.008C176.38 43.848 176.711 43.6773 176.977 43.496C177.244 43.304 177.473 43.1333 177.665 42.984C177.868 42.824 178.092 42.744 178.337 42.744C178.657 42.744 178.897 42.8667 179.057 43.112L180.193 44.552C179.756 45.064 179.281 45.496 178.769 45.848C178.257 46.1893 177.724 46.4667 177.169 46.68C176.625 46.8827 176.06 47.0267 175.473 47.112C174.897 47.1973 174.321 47.24 173.745 47.24C172.732 47.24 171.777 47.0533 170.881 46.68C169.985 46.296 169.201 45.7413 168.529 45.016C167.857 44.2907 167.324 43.4053 166.929 42.36C166.545 41.304 166.353 40.104 166.353 38.76C166.353 37.5547 166.524 36.44 166.865 35.416C167.217 34.3813 167.729 33.4907 168.401 32.744C169.073 31.9867 169.905 31.3947 170.897 30.968C171.889 30.5413 173.031 30.328 174.321 30.328C175.548 30.328 176.62 30.5253 177.537 30.92C178.465 31.3147 179.297 31.88 180.033 32.616L178.993 34.056ZM186.623 23.224V36.84H187.359C187.625 36.84 187.833 36.808 187.983 36.744C188.143 36.6693 188.303 36.5253 188.463 36.312L192.543 31.272C192.713 31.048 192.9 30.8773 193.103 30.76C193.316 30.6427 193.588 30.584 193.919 30.584H197.535L192.431 36.68C192.068 37.16 191.673 37.528 191.247 37.784C191.471 37.944 191.668 38.1307 191.839 38.344C192.02 38.5573 192.191 38.7867 192.351 39.032L197.823 47H194.255C193.945 47 193.679 46.952 193.455 46.856C193.231 46.7493 193.044 46.5627 192.895 46.296L188.703 40.072C188.553 39.8267 188.399 39.6667 188.239 39.592C188.079 39.5173 187.839 39.48 187.519 39.48H186.623V47H182.671V23.224H186.623ZM209.497 36.904C209.497 36.392 209.422 35.912 209.273 35.464C209.134 35.0053 208.921 34.6053 208.633 34.264C208.345 33.9227 207.977 33.656 207.529 33.464C207.091 33.2613 206.579 33.16 205.993 33.16C204.851 33.16 203.95 33.4853 203.289 34.136C202.638 34.7867 202.222 35.7093 202.041 36.904H209.497ZM201.961 39.288C202.025 40.1307 202.174 40.8613 202.409 41.48C202.643 42.088 202.953 42.5947 203.337 43C203.721 43.3947 204.174 43.6933 204.697 43.896C205.23 44.088 205.817 44.184 206.457 44.184C207.097 44.184 207.646 44.1093 208.105 43.96C208.574 43.8107 208.979 43.6453 209.321 43.464C209.673 43.2827 209.977 43.1173 210.233 42.968C210.499 42.8187 210.755 42.744 211.001 42.744C211.331 42.744 211.577 42.8667 211.737 43.112L212.873 44.552C212.435 45.064 211.945 45.496 211.401 45.848C210.857 46.1893 210.286 46.4667 209.689 46.68C209.102 46.8827 208.499 47.0267 207.881 47.112C207.273 47.1973 206.681 47.24 206.105 47.24C204.963 47.24 203.902 47.0533 202.921 46.68C201.939 46.296 201.086 45.736 200.361 45C199.635 44.2533 199.065 43.336 198.649 42.248C198.233 41.1493 198.025 39.88 198.025 38.44C198.025 37.32 198.206 36.2693 198.569 35.288C198.931 34.296 199.449 33.4373 200.121 32.712C200.803 31.976 201.63 31.3947 202.601 30.968C203.582 30.5413 204.686 30.328 205.913 30.328C206.947 30.328 207.902 30.4933 208.777 30.824C209.651 31.1547 210.403 31.64 211.033 32.28C211.662 32.9093 212.153 33.688 212.505 34.616C212.867 35.5333 213.049 36.584 213.049 37.768C213.049 38.3653 212.985 38.7707 212.857 38.984C212.729 39.1867 212.483 39.288 212.121 39.288H201.961ZM221.33 47.256C219.901 47.256 218.802 46.856 218.034 46.056C217.277 45.2453 216.898 44.1307 216.898 42.712V33.544H215.218C215.005 33.544 214.824 33.4747 214.674 33.336C214.525 33.1973 214.45 32.9893 214.45 32.712V31.144L217.09 30.712L217.922 26.232C217.976 26.0187 218.077 25.8533 218.226 25.736C218.376 25.6187 218.568 25.56 218.802 25.56H220.85V30.728H225.234V33.544H220.85V42.44C220.85 42.952 220.973 43.352 221.218 43.64C221.474 43.928 221.821 44.072 222.258 44.072C222.504 44.072 222.706 44.0453 222.866 43.992C223.037 43.928 223.181 43.864 223.298 43.8C223.426 43.736 223.538 43.6773 223.634 43.624C223.73 43.56 223.826 43.528 223.922 43.528C224.04 43.528 224.136 43.56 224.21 43.624C224.285 43.6773 224.365 43.7627 224.45 43.88L225.634 45.8C225.058 46.28 224.397 46.6427 223.65 46.888C222.904 47.1333 222.13 47.256 221.33 47.256ZM237.781 33.784C237.674 33.9547 237.562 34.0773 237.445 34.152C237.327 34.216 237.178 34.248 236.997 34.248C236.805 34.248 236.597 34.1947 236.373 34.088C236.159 33.9813 235.909 33.864 235.621 33.736C235.333 33.5973 235.002 33.4747 234.628 33.368C234.266 33.2613 233.834 33.208 233.333 33.208C232.554 33.208 231.941 33.3733 231.493 33.704C231.055 34.0347 230.837 34.4667 230.837 35C230.837 35.352 230.949 35.6507 231.173 35.896C231.407 36.1307 231.711 36.3387 232.085 36.52C232.469 36.7013 232.901 36.8667 233.381 37.016C233.861 37.1547 234.346 37.3093 234.837 37.48C235.338 37.6507 235.829 37.848 236.309 38.072C236.789 38.2853 237.215 38.5627 237.589 38.904C237.973 39.2347 238.277 39.6347 238.501 40.104C238.735 40.5733 238.853 41.1387 238.853 41.8C238.853 42.5893 238.709 43.32 238.421 43.992C238.143 44.6533 237.727 45.2293 237.173 45.72C236.618 46.2 235.93 46.5787 235.109 46.856C234.298 47.1227 233.359 47.256 232.293 47.256C231.727 47.256 231.173 47.2027 230.629 47.096C230.095 47 229.578 46.8613 229.077 46.68C228.586 46.4987 228.127 46.2853 227.701 46.04C227.285 45.7947 226.917 45.528 226.597 45.24L227.509 43.736C227.626 43.5547 227.765 43.416 227.924 43.32C228.084 43.224 228.287 43.176 228.533 43.176C228.778 43.176 229.007 43.2453 229.221 43.384C229.445 43.5227 229.701 43.672 229.989 43.832C230.277 43.992 230.613 44.1413 230.997 44.28C231.391 44.4187 231.887 44.488 232.485 44.488C232.954 44.488 233.354 44.4347 233.685 44.328C234.026 44.2107 234.303 44.0613 234.517 43.88C234.741 43.6987 234.9 43.4907 234.997 43.256C235.103 43.0107 235.157 42.76 235.157 42.504C235.157 42.12 235.039 41.8053 234.805 41.56C234.581 41.3147 234.277 41.1013 233.892 40.92C233.519 40.7387 233.087 40.5787 232.597 40.44C232.117 40.2907 231.621 40.1307 231.109 39.96C230.607 39.7893 230.111 39.592 229.621 39.368C229.141 39.1333 228.709 38.84 228.325 38.488C227.951 38.136 227.647 37.704 227.413 37.192C227.189 36.68 227.077 36.0613 227.077 35.336C227.077 34.664 227.21 34.024 227.477 33.416C227.743 32.808 228.133 32.28 228.645 31.832C229.167 31.3733 229.813 31.0107 230.581 30.744C231.359 30.4667 232.255 30.328 233.269 30.328C234.399 30.328 235.429 30.5147 236.357 30.888C237.285 31.2613 238.058 31.752 238.677 32.36L237.781 33.784Z" fill="white"/>
<defs>
<linearGradient id="paint0_linear" x1="20.915" y1="42.9526" x2="20.915" y2="49.641" gradientUnits="userSpaceOnUse">
<stop stop-color="#D66DF0"/>
<stop offset="1" stop-color="#B66DF0"/>
</linearGradient>
<linearGradient id="paint1_linear" x1="24.0367" y1="41.4668" x2="24.0367" y2="46.8945" gradientUnits="userSpaceOnUse">
<stop stop-color="#D66DF0"/>
<stop offset="1" stop-color="#B66DF0"/>
</linearGradient>
<linearGradient id="paint2_linear" x1="26.7502" y1="38.0164" x2="26.7502" y2="44.5504" gradientUnits="userSpaceOnUse">
<stop stop-color="#D66DF0"/>
<stop offset="1" stop-color="#B66DF0"/>
</linearGradient>
<linearGradient id="paint3_linear" x1="30.359" y1="33.7378" x2="30.359" y2="41.2391" gradientUnits="userSpaceOnUse">
<stop stop-color="#D66DF0"/>
<stop offset="1" stop-color="#B66DF0"/>
</linearGradient>
<linearGradient id="paint4_linear" x1="33.8295" y1="29.7756" x2="33.8295" y2="37.3975" gradientUnits="userSpaceOnUse">
<stop stop-color="#D66DF0"/>
<stop offset="1" stop-color="#B66DF0"/>
</linearGradient>
<linearGradient id="paint5_linear" x1="36.5233" y1="26.0549" x2="36.5233" y2="32.7433" gradientUnits="userSpaceOnUse">
<stop stop-color="#D66DF0"/>
<stop offset="1" stop-color="#B66DF0"/>
</linearGradient>
<linearGradient id="paint6_linear" x1="37.1667" y1="12.2285" x2="37.1667" y2="16.9994" gradientUnits="userSpaceOnUse">
<stop stop-color="#D66DF0"/>
<stop offset="1" stop-color="#B66DF0"/>
</linearGradient>
<linearGradient id="paint7_linear" x1="43.0297" y1="18.5757" x2="43.0297" y2="23.3466" gradientUnits="userSpaceOnUse">
<stop stop-color="#D66DF0"/>
<stop offset="1" stop-color="#B66DF0"/>
</linearGradient>
<linearGradient id="paint8_linear" x1="53.6455" y1="31.2698" x2="53.6455" y2="33.6377" gradientUnits="userSpaceOnUse">
<stop stop-color="#D66DF0"/>
<stop offset="1" stop-color="#B66DF0"/>
</linearGradient>
<linearGradient id="paint9_linear" x1="48.8926" y1="24.9229" x2="48.8926" y2="29.6938" gradientUnits="userSpaceOnUse">
<stop stop-color="#D66DF0"/>
<stop offset="1" stop-color="#B66DF0"/>
</linearGradient>
<linearGradient id="paint10_linear" x1="32.3296" y1="0.000976562" x2="32.3296" y2="70.001" gradientUnits="userSpaceOnUse">
<stop stop-color="#D66DF0"/>
<stop offset="1" stop-color="#B66DF0"/>
</linearGradient>
<linearGradient id="paint11_linear" x1="36.3131" y1="17.7275" x2="36.3131" y2="46.1864" gradientUnits="userSpaceOnUse">
<stop stop-color="#D66DF0"/>
<stop offset="1" stop-color="#B66DF0"/>
</linearGradient>
<linearGradient id="paint12_linear" x1="23.4477" y1="31.8552" x2="23.4477" y2="59.9156" gradientUnits="userSpaceOnUse">
<stop stop-color="#D66DF0"/>
<stop offset="1" stop-color="#B66DF0"/>
</linearGradient>
<clipPath id="clip0">
<rect width="64.6591" height="70" fill="white"/>
</clipPath>
</defs>
</svg>
